<?xml version="1.0" encoding="UTF-8" standalone="no"?>
<svg
   xmlns:dc="http://purl.org/dc/elements/1.1/"
   xmlns:cc="http://creativecommons.org/ns#"
   xmlns:rdf="http://www.w3.org/1999/02/22-rdf-syntax-ns#"
   xmlns:svg="http://www.w3.org/2000/svg"
   xmlns="http://www.w3.org/2000/svg"
   xmlns:sodipodi="http://sodipodi.sourceforge.net/DTD/sodipodi-0.dtd"
   xmlns:inkscape="http://www.inkscape.org/namespaces/inkscape"
   version="1.0"
   width="50.000000pt"
   height="25.000000pt"
   viewBox="100 0 600.000000 389.000000"
   preserveAspectRatio="xMidYMid meet"
   id="svg4532"
   sodipodi:docname="logo.svg"
   inkscape:version="0.92.2 (5c3e80d, 2017-08-06)">
  <metadata
     id="metadata4538">
    <rdf:RDF>
      <cc:Work
         rdf:about="">
        <dc:format>image/svg+xml</dc:format>
        <dc:type
           rdf:resource="http://purl.org/dc/dcmitype/StillImage" />
        <dc:title></dc:title>
      </cc:Work>
    </rdf:RDF>
  </metadata>
  <defs
     id="defs4536" />
  <sodipodi:namedview
     pagecolor="#ffffff"
     bordercolor="#666666"
     borderopacity="1"
     objecttolerance="10"
     gridtolerance="10"
     guidetolerance="10"
     inkscape:pageopacity="1"
     inkscape:pageshadow="2"
     inkscape:window-width="1366"
     inkscape:window-height="705"
     id="namedview4534"
     showgrid="false"
     borderlayer="true"
     inkscape:zoom="13.05"
     inkscape:cx="33.333333"
     inkscape:cy="16.666667"
     inkscape:window-x="-8"
     inkscape:window-y="-8"
     inkscape:window-maximized="1"
     inkscape:current-layer="svg4532" />
  <g
     transform="translate(0.000000,389.000000) scale(0.100000,-0.100000)"
     fill="#000000"
     stroke="none"
     id="g4530">
    <path
       d="M0 3010 l0 -880 895 0 895 0 0 880 0 880 -895 0 -895 0 0 -880z"
       id="path4522" />
    <path
       d="M2090 3010 l0 -880 915 0 915 0 0 880 0 880 -915 0 -915 0 0 -880z"
       id="path4524" />
    <path
       d="M2090 910 l0 -910 915 0 915 0 0 910 0 910 -915 0 -915 0 0 -910z"
       id="path4526" />
    <path
       d="M4220 910 l0 -910 890 0 890 0 0 910 0 910 -890 0 -890 0 0 -910z"
       id="path4528" />
  </g>
</svg>
